. 
  
http://www.torrentday.com/        :     The Hottest Private Tracker On The Net!!!


               www . TorrentDay . Com 
(((((((((((((= Enjoy No RAR releases =))))))))))))))))))))


...................................NFO:....................................

.[img]http://leetleech.org/images/98081979113376782688.jpg[/img]

[b]Shelter LIMITED 2010 480p BRRip XviD AC3-LEGi0N

[img]http://leetleech.org/images/48874973695367351744.png[/img]
[color=red]General[/color]
Format: AVI
File size: 1.54 GiB
Duration: 1h 52mn
Overall bit rate: 1 958 Kbps
IMDb Rating: 6.2/10   242 votes
Genre: Horror | Thriller 
Release Date: 2010 (USA)
IMDb Link: http://www.imdb.com/title/tt1179069/
Source: 720p Bluray x264-ALLiANCE

[color=red]Video[/color]
Format: MPEG-4 Visual
Format profile: Streaming Video@L1
Format settings, BVOP: Yes
Format settings, QPel: No
Format settings, GMC: No warppoints
Format settings, Matrix: Default (H.263)
Muxing mode: Packed bitstream
Codec ID: XVID
Bit rate: 1 500 Kbps
Width: 720 pixels
Height: 304 pixels
Display aspect ratio: 2.35
Frame rate: 23.976 fps
Resolution: 24 bits
Colorimetry: 4:2:0
Scan type: Progressive
Bits/(Pixel*Frame): 0.286
Stream size: 1.18 GiB (77%)

[color=red]Audio[/color]
Format: AC-3
Bit rate mode: Constant
Bit rate: 448 Kbps
Channel(s): 6 channels
Sampling rate: 48.0 KHz
Stream size: 361 MiB (23%)

[img]http://leetleech.org/images/89524873606771859129.png[/img]
A female forensic psychiatrist discovers that all of one of her 
patient's multiple personalities are murder victims. She will have 
to find out what's happening before her time is finished.

[img]http://leetleech.org/images/84434050717770922575.png[/img]
Julianne Moore	... 	Dr. Cara Jessup
Jonathan Rhys Meyers	... 	Adam
Jeffrey DeMunn	... 	Dr. Harding
Frances Conroy	... 	Mrs. Birnberg
Brooklynn Proulx	... 	Sammy
Nathan Corddry	... 	Stephen
KatiAna Davis	... 	The Familiar
Michael Graves	... 	Holler Man

[color=red]GREETZ[/color]
Noir | xXTHORNXx | bigimac | LUSi |

kempas | KaN1vE | mike160 | skillz |

Lungbuster | Sheikh | dillon1369 |

FLAWL3SS | AND ALL P2P!

[color=red]SAMPLE INCLUDED![/color][/b]

[img]http://leetleech.org/images/95521316153253938506.png[/img]
[img]http://leetleech.org/images/07790405980962700329.png[/img]
[img]http://leetleech.org/images/71336629333610823494.png[/img]
[img]http://leetleech.org/images/68699715664939928471.png[/img]
[img]http://leetleech.org/images/45947498051607378654.png[/img]
[img]http://leetleech.org/images/38283155361011016193.png[/img]
[img]http://leetleech.org/images/60717568333773026674.png[/img]
[img]http://leetleech.org/images/12755021538703799215.png[/img]